HIERARCHY
ROOT hip
{
  OFFSET -8.32607 96.2518 6.50609
  CHANNELS 6 Xposition Yposition Zposition Zrotation Xrotation Yrotation
  JOINT abdomen
  {
    OFFSET 0 7.2397 0
    CHANNELS 6 Xposition Yposition Zposition Zrotation Xrotation Yrotation
    JOINT chest
    {
      OFFSET 0 16.546 0
      CHANNELS 6 Xposition Yposition Zposition Zrotation Xrotation Yrotation
      JOINT neck
      {
        OFFSET 0 34.2149 0
        CHANNELS 6 Xposition Yposition Zposition Zrotation Xrotation Yrotation
        JOINT head
        {
          OFFSET 0 6.2923 0
          CHANNELS 6 Xposition Yposition Zposition Zrotation Xrotation Yrotation
          End Site
          {
            OFFSET 0 21.2161 0
          }
        }
      }
      JOINT lCollar
      {
        OFFSET 4.0639 26.6115 -1.1234
        CHANNELS 6 Xposition Yposition Zposition Zrotation Xrotation Yrotation
        JOINT lShldr
        {
          OFFSET 14.1772 0 0
          CHANNELS 6 Xposition Yposition Zposition Zrotation Xrotation Yrotation
          JOINT lForeArm
          {
            OFFSET 26.1234 0 0
            CHANNELS 6 Xposition Yposition Zposition Zrotation Xrotation Yrotation
            JOINT lHand
            {
              OFFSET 27.7188 0 0
              CHANNELS 6 Xposition Yposition Zposition Zrotation Xrotation Yrotation
              JOINT lThumb1
              {
                OFFSET 2.2979 -0.4685 1.8313
                CHANNELS 6 Xposition Yposition Zposition Zrotation Xrotation Yrotation
                JOINT lThumb2
                {
                  OFFSET 5.2953 0 0
                  CHANNELS 6 Xposition Yposition Zposition Zrotation Xrotation Yrotation
                  JOINT lThumb3
                  {
                    OFFSET 3.0181 0 0
                    CHANNELS 6 Xposition Yposition Zposition Zrotation Xrotation Yrotation
                    End Site
                    {
                      OFFSET 2.6294 0 0
                    }
                  }
                }
              }
              JOINT lIndex1
              {
                OFFSET 9.3793 0.2991 2.5924
                CHANNELS 6 Xposition Yposition Zposition Zrotation Xrotation Yrotation
                JOINT lIndex2
                {
                  OFFSET 4.3461 0 0
                  CHANNELS 6 Xposition Yposition Zposition Zrotation Xrotation Yrotation
                  JOINT lIndex3
                  {
                    OFFSET 2.1666 0 0
                    CHANNELS 6 Xposition Yposition Zposition Zrotation Xrotation Yrotation
                    End Site
                    {
                      OFFSET 2.2048 0 0
                    }
                  }
                }
              }
              JOINT lMid1
              {
                OFFSET 9.4769 0.8376 0.2947
                CHANNELS 6 Xposition Yposition Zposition Zrotation Xrotation Yrotation
                JOINT lMid2
                {
                  OFFSET 4.772 0 0
                  CHANNELS 6 Xposition Yposition Zposition Zrotation Xrotation Yrotation
                  JOINT lMid3
                  {
                    OFFSET 2.8722 0 0
                    CHANNELS 6 Xposition Yposition Zposition Zrotation Xrotation Yrotation
                    End Site
                    {
                      OFFSET 2.0959 0 0
                    }
                  }
                }
              }
              JOINT lRing1
              {
                OFFSET 8.6586 1.0176 -1.7016
                CHANNELS 6 Xposition Yposition Zposition Zrotation Xrotation Yrotation
                JOINT lRing2
                {
                  OFFSET 4.5461 0 0
                  CHANNELS 6 Xposition Yposition Zposition Zrotation Xrotation Yrotation
                  JOINT lRing3
                  {
                    OFFSET 2.506 0 0
                    CHANNELS 6 Xposition Yposition Zposition Zrotation Xrotation Yrotation
                    End Site
                    {
                      OFFSET 2.2023 0 0
                    }
                  }
                }
              }
              JOINT lPinky1
              {
                OFFSET 7.6901 0.6618 -3.9096
                CHANNELS 6 Xposition Yposition Zposition Zrotation Xrotation Yrotation
                JOINT lPinky2
                {
                  OFFSET 3.2119 0 0
                  CHANNELS 6 Xposition Yposition Zposition Zrotation Xrotation Yrotation
                  JOINT lPinky3
                  {
                    OFFSET 1.924 0 0
                    CHANNELS 6 Xposition Yposition Zposition Zrotation Xrotation Yrotation
                    End Site
                    {
                      OFFSET 1.7829 0 0
                    }
                  }
                }
              }
            }
          }
        }
      }
      JOINT rCollar
      {
        OFFSET -4.0677 26.6109 -1.1234
        CHANNELS 6 Xposition Yposition Zposition Zrotation Xrotation Yrotation
        JOINT rShldr
        {
          OFFSET -14.1772 0 0
          CHANNELS 6 Xposition Yposition Zposition Zrotation Xrotation Yrotation
          JOINT rForeArm
          {
            OFFSET -26.1234 0 0
            CHANNELS 6 Xposition Yposition Zposition Zrotation Xrotation Yrotation
            JOINT rHand
            {
              OFFSET -27.7188 0 0
              CHANNELS 6 Xposition Yposition Zposition Zrotation Xrotation Yrotation
              JOINT rThumb1
              {
                OFFSET -2.2979 -0.4684 1.8313
                CHANNELS 6 Xposition Yposition Zposition Zrotation Xrotation Yrotation
                JOINT rThumb2
                {
                  OFFSET -5.2953 0 0
                  CHANNELS 6 Xposition Yposition Zposition Zrotation Xrotation Yrotation
                  JOINT rThumb3
                  {
                    OFFSET -3.0181 0 0
                    CHANNELS 6 Xposition Yposition Zposition Zrotation Xrotation Yrotation
                    End Site
                    {
                      OFFSET -2.6294 0 0
                    }
                  }
                }
              }
              JOINT rIndex1
              {
                OFFSET -9.3793 0.2991 2.5924
                CHANNELS 6 Xposition Yposition Zposition Zrotation Xrotation Yrotation
                JOINT rIndex2
                {
                  OFFSET -4.3461 0 0
                  CHANNELS 6 Xposition Yposition Zposition Zrotation Xrotation Yrotation
                  JOINT rIndex3
                  {
                    OFFSET -2.1666 0 0
                    CHANNELS 6 Xposition Yposition Zposition Zrotation Xrotation Yrotation
                    End Site
                    {
                      OFFSET -2.2048 0 0
                    }
                  }
                }
              }
              JOINT rMid1
              {
                OFFSET -9.4769 0.8376 0.2947
                CHANNELS 6 Xposition Yposition Zposition Zrotation Xrotation Yrotation
                JOINT rMid2
                {
                  OFFSET -4.772 0 0
                  CHANNELS 6 Xposition Yposition Zposition Zrotation Xrotation Yrotation
                  JOINT rMid3
                  {
                    OFFSET -2.8722 0 0
                    CHANNELS 6 Xposition Yposition Zposition Zrotation Xrotation Yrotation
                    End Site
                    {
                      OFFSET -2.0959 0 0
                    }
                  }
                }
              }
              JOINT rRing1
              {
                OFFSET -8.6586 1.0176 -1.7016
                CHANNELS 6 Xposition Yposition Zposition Zrotation Xrotation Yrotation
                JOINT rRing2
                {
                  OFFSET -4.5461 0 0
                  CHANNELS 6 Xposition Yposition Zposition Zrotation Xrotation Yrotation
                  JOINT rRing3
                  {
                    OFFSET -2.506 0 0
                    CHANNELS 6 Xposition Yposition Zposition Zrotation Xrotation Yrotation
                    End Site
                    {
                      OFFSET -2.2023 0 0
                    }
                  }
                }
              }
              JOINT rPinky1
              {
                OFFSET -7.6901 0.6618 -3.9096
                CHANNELS 6 Xposition Yposition Zposition Zrotation Xrotation Yrotation
                JOINT rPinky2
                {
                  OFFSET -3.2119 0 0
                  CHANNELS 6 Xposition Yposition Zposition Zrotation Xrotation Yrotation
                  JOINT rPinky3
                  {
                    OFFSET -1.924 0 0
                    CHANNELS 6 Xposition Yposition Zposition Zrotation Xrotation Yrotation
                    End Site
                    {
                      OFFSET -1.7829 0 0
                    }
                  }
                }
              }
            }
          }
        }
      }
    }
  }
  JOINT lThigh
  {
    OFFSET 8.7379 -0.0029 0.0005
    CHANNELS 6 Xposition Yposition Zposition Zrotation Xrotation Yrotation
    JOINT lShin
    {
      OFFSET 0 -46.6676 0
      CHANNELS 6 Xposition Yposition Zposition Zrotation Xrotation Yrotation
      JOINT lFoot
      {
        OFFSET 0 -40.1476 0
        CHANNELS 6 Xposition Yposition Zposition Zrotation Xrotation Yrotation
        JOINT lToes
        {
          OFFSET 0 -8.8846 14.2294
          CHANNELS 6 Xposition Yposition Zposition Zrotation Xrotation Yrotation
          End Site
          {
            OFFSET 0 0 6.296
          }
        }
      }
    }
  }
  JOINT rThigh
  {
    OFFSET -8.7379 0.0029 -0.0005
    CHANNELS 6 Xposition Yposition Zposition Zrotation Xrotation Yrotation
    JOINT rShin
    {
      OFFSET 0 -46.6676 0
      CHANNELS 6 Xposition Yposition Zposition Zrotation Xrotation Yrotation
      JOINT rFoot
      {
        OFFSET 0 -40.1476 0
        CHANNELS 6 Xposition Yposition Zposition Zrotation Xrotation Yrotation
        JOINT rToes
        {
          OFFSET 0 -8.8846 14.2294
          CHANNELS 6 Xposition Yposition Zposition Zrotation Xrotation Yrotation
          End Site
          {
            OFFSET 0 0 6.296
          }
        }
      }
    }
  }
}
MOTION
Frames:	4
Frame Time:	0.0333333
-8.32607 96.2518 6.50609 -0.3744 1.67964 -0.169855 1.77636e-15 7.2397 0 0.388615 -2.53787 0.30882 0 16.546 0 0.915443 -3.21486 0.594764 -8.88178e-16 34.2149 -1.77636e-15 -5.23757 44.3574 4.82097 1.77636e-15 6.2923 0 3.94057 -32.4457 -3.36764 4.0639 26.6115 -1.1234 2.10523 -2.45401 3.71235 14.1772 0 3.55271e-15 -87.6292 45.5659 17.5131 26.1234 -3.55271e-15 7.10543e-15 -0.75482 -3.02064 -25.5039 27.7188 0 0 3.39988 -13.9477 -2.03989 2.2979 -0.4685 1.8313 70.3881 66.0825 -86.1179 5.2953 -7.10543e-15 8.88178e-16 -16.6448 -7.18309 -0.497165 3.0181 0 -1.33227e-15 12.4883 -0.000109421 -5.86965e-06 9.3793 0.2991 2.5924 -12.606 -9.39325 6.16744 4.3461 1.77636e-15 -1.77636e-15 -29.5439 -0.593482 3.47044 2.1666 0 0 -2.1684 -1.36217e-05 -1.63111e-06 9.4769 0.8376 0.2947 -22.1169 -12.0314 4.2579 4.772 5.32907e-15 0 -19.6974 -0.153077 1.34276 2.8722 -1.06581e-14 0 3.9574 0.0710973 0.3994 8.6586 1.0176 -1.7016 -20.4844 -6.0018 0.802149 4.5461 -2.66454e-15 0 -32.8793 0.476506 -1.56826 2.506 7.10543e-15 3.55271e-15 6.7605 -9.46994e-06 -9.94322e-05 7.6901 0.6618 -3.9096 -15.5597 -10.0976 -0.39603 3.2119 -8.88178e-16 -3.55271e-15 -49.3177 -2.31349 5.05547 1.924 0 -1.77636e-15 4.4131 -5.95467e-06 -3.69154e-06 -4.0677 26.6109 -1.1234 -2.30212 -0.895415 0.951767 -14.1772 0 -1.77636e-15 83.0963 44.9103 -14.9444 -26.1234 -7.10543e-15 7.10543e-15 0.0267774 -9.60746 26.759 -27.7188 -7.10543e-15 3.55271e-15 1.97196 -4.05505 -6.24621 -2.2979 -0.4684 1.8313 -39.8176 51.1886 54.4657 -5.2953 7.10543e-15 1.77636e-15 18.8139 -1.39736 -0.975232 -3.0181 7.10543e-15 7.10543e-15 -12.4883 -9.51409e-05 0.000105278 -9.3793 0.2991 2.5924 17.0212 -12.0254 3.03627 -4.3461 -3.55271e-15 0 17.0192 -0.0670965 -2.44052 -2.1666 3.55271e-15 -8.88178e-16 2.1682 1.53065e-06 6.59416e-06 -9.4769 0.8376 0.2947 12.3127 -8.4458 2.88157 -4.772 0 1.77636e-15 31.3056 -0.667006 -2.677 -2.8722 7.10543e-15 0 -3.95751 0.0709846 -0.399396 -8.6586 1.0176 -1.7016 15.9665 -11.9293 1.74812 -4.5461 -3.55271e-15 -1.77636e-15 40.0198 0.884564 2.79108 -2.506 -7.10543e-15 -1.77636e-15 -6.7605 -1.01325e-05 4.95487e-06 -7.6901 0.6618 -3.9096 23.566 -8.77233 6.40247 -3.2119 0 0 34.7687 -0.61571 -1.9928 -1.924 7.10543e-15 0 -4.413 -4.01223e-06 1.12213e-06 8.7379 -0.0029 0.0005 4.63618 -5.14339 1.66433 0 -46.6676 1.77636e-15 1.17633 14.9892 -0.308168 0 -40.1476 8.88178e-16 -4.73514 -11.1554 21.2317 0 -8.8846 14.2294 0.0001 4.96962e-17 -0 -8.7379 0.0029 -0.0005 -4.96345 -9.15983 -22.6588 3.55271e-15 -46.6676 0 -1.37484 17.3104 0.182951 3.55271e-15 -40.1476 0 2.76748 -8.25875 -9.52094 7.10543e-15 -8.8846 14.2294 -9.93923e-17 -4.96962e-17 3.18055e-15 
-8.32409 96.2423 6.50991 -0.364469 1.44878 -0.187388 1.77636e-15 7.2397 0 0.381217 -2.53671 0.311566 -1.77636e-15 16.546 0 0.903895 -3.21253 0.600528 0 34.2149 -1.77636e-15 -5.22002 44.3508 4.80328 -1.77636e-15 6.2923 0 3.96889 -32.3996 -3.36238 4.0639 26.6115 -1.1234 2.05775 -2.38721 2.89673 14.1772 0 0 -87.9061 45.1054 17.9042 26.1234 0 -7.10543e-15 -0.745475 -3.40037 -25.6641 27.7188 0 0 3.43371 -13.9262 -1.98798 2.2979 -0.4685 1.8313 70.4184 66.0192 -86.1451 5.2953 0 0 -16.6834 -7.1831 -0.492118 3.0181 0 -4.44089e-16 12.4883 -0.000109421 -5.86965e-06 9.3793 0.2991 2.5924 -12.6236 -9.39654 6.16256 4.3461 1.77636e-15 0 -29.5478 -0.593482 3.47044 2.1666 -3.55271e-15 1.77636e-15 -2.1684 -1.36217e-05 -1.63111e-06 9.4769 0.8376 0.2947 -22.1857 -12.0356 4.24978 4.772 8.88178e-16 0 -19.6948 -0.153077 1.34276 2.8722 7.10543e-15 0 3.9574 0.0710973 0.3994 8.6586 1.0176 -1.7016 -20.539 -6.02864 0.78952 4.5461 -1.33227e-15 -7.10543e-15 -32.8793 0.476506 -1.56826 2.506 7.10543e-15 -3.55271e-15 6.7605 -9.46994e-06 -9.94322e-05 7.6901 0.6618 -3.9096 -15.7013 -10.0505 -0.340148 3.2119 -1.77636e-15 3.55271e-15 -49.3199 -2.31349 5.05547 1.924 -1.42109e-14 0 4.4131 -5.95467e-06 -3.69154e-06 -4.0677 26.6109 -1.1234 -2.24176 -0.87406 1.75553 -14.1772 2.84217e-14 1.77636e-15 83.4673 44.4577 -15.4706 -26.1234 0 -7.10543e-15 0.0153341 -9.97017 26.8107 -27.7188 -7.10543e-15 -4.44089e-16 1.98504 -4.03392 -6.28073 -2.2979 -0.4684 1.8313 -39.8372 51.1928 54.4885 -5.2953 7.10543e-15 0 18.8835 -1.39833 -0.992258 -3.0181 0 0 -12.4883 -9.51409e-05 0.000105278 -9.3793 0.2991 2.5924 17.0277 -12.0167 3.05417 -4.3461 3.55271e-15 -1.77636e-15 17.0229 -0.0670965 -2.44052 -2.1666 -3.55271e-15 8.88178e-16 2.1682 1.53065e-06 6.59416e-06 -9.4769 0.8376 0.2947 12.3767 -8.43845 2.88043 -4.772 7.10543e-15 -1.77636e-15 31.3056 -0.667006 -2.677 -2.8722 -3.55271e-15 1.77636e-15 -3.95751 0.0709846 -0.399396 -8.6586 1.0176 -1.7016 15.9979 -11.8835 1.72924 -4.5461 0 0 40.0198 0.884564 2.79108 -2.506 -7.10543e-15 0 -6.7605 -1.01325e-05 4.95487e-06 -7.6901 0.6618 -3.9096 23.6207 -8.76176 6.39743 -3.2119 -7.10543e-15 -8.88178e-16 34.7698 -0.61571 -1.9928 -1.924 -7.10543e-15 1.77636e-15 -4.413 -4.01223e-06 1.12213e-06 8.7379 -0.0029 0.0005 4.61937 -4.94334 1.64374 0 -46.6676 1.77636e-15 1.18341 15.0648 -0.327071 0 -40.1476 6.66134e-16 -4.73352 -11.2023 21.2711 -8.88178e-16 -8.8846 14.2294 0.0001 0 6.36111e-15 -8.7379 0.0029 -0.0005 -4.98848 -8.96997 -22.658 0 -46.6676 0 -1.38332 17.4035 0.193962 3.55271e-15 -40.1476 0 2.77247 -8.30792 -9.49494 0 -8.8846 14.2294 -9.93923e-17 0 9.54166e-15 
-8.31442 96.2069 6.5241 -0.326751 0.847863 -0.247614 0 7.2397 8.88178e-16 0.352382 -2.52914 0.320752 3.55271e-15 16.546 0 0.858292 -3.19742 0.620324 -8.88178e-16 34.2149 0 -5.14986 44.3195 4.73161 0 6.2923 -1.42109e-14 4.08111 -32.2436 -3.34786 4.0639 26.6115 -1.1234 1.92242 -2.21808 0.799032 14.1772 0 0 -88.4732 43.8908 18.8933 26.1234 0 -7.10543e-15 -0.735837 -4.33638 -26.3327 27.7188 -3.55271e-15 -3.55271e-15 3.57283 -13.8774 -1.79258 2.2979 -0.4685 1.8313 70.5304 65.7855 -86.2556 5.2953 0 -1.77636e-15 -16.8299 -7.18312 -0.472672 3.0181 0 4.44089e-16 12.4883 -0.000109421 -5.86965e-06 9.3793 0.2991 2.5924 -12.6884 -9.40599 6.1482 4.3461 -1.77636e-15 0 -29.5364 -0.593482 3.47044 2.1666 7.10543e-15 0 -2.1684 -1.36217e-05 -1.63111e-06 9.4769 0.8376 0.2947 -22.4605 -12.0515 4.21587 4.772 2.66454e-15 0 -19.6874 -0.153077 1.34276 2.8722 -1.06581e-14 -1.77636e-15 3.9574 0.0710973 0.3994 8.6586 1.0176 -1.7016 -20.7546 -6.13052 0.739823 4.5461 3.55271e-15 -3.55271e-15 -32.8789 0.476506 -1.56826 2.506 -7.10543e-15 3.55271e-15 6.7605 -9.46994e-06 -9.94322e-05 7.6901 0.6618 -3.9096 -16.2423 -9.86766 -0.123684 3.2119 -1.77636e-15 0 -49.3151 -2.31349 5.05547 1.924 -7.10543e-15 0 4.4131 -5.95467e-06 -3.69154e-06 -4.0677 26.6109 -1.1234 -2.09259 -0.831899 3.79897 -14.1772 0 0 84.3112 43.2655 -16.8231 -26.1234 7.10543e-15 7.10543e-15 -0.011292 -10.8638 27.0486 -27.7188 1.42109e-14 1.77636e-15 1.99126 -3.98954 -6.41373 -2.2979 -0.4684 1.8313 -39.9101 51.2 54.5818 -5.2953 0 3.55271e-15 19.1632 -1.40322 -1.0595 -3.0181 0 7.10543e-15 -12.4883 -9.51409e-05 0.000105278 -9.3793 0.2991 2.5924 17.0494 -11.983 3.11946 -4.3461 3.55271e-15 1.77636e-15 17.0294 -0.0670965 -2.44009 -2.1666 -8.88178e-16 8.88178e-16 2.1682 1.53065e-06 6.59416e-06 -9.4769 0.8376 0.2947 12.6397 -8.41825 2.8929 -4.772 7.10543e-15 -1.77636e-15 31.3056 -0.667006 -2.677 -2.8722 5.32907e-15 -1.77636e-15 -3.95751 0.0709846 -0.399396 -8.6586 1.0176 -1.7016 16.0973 -11.7063 1.65342 -4.5461 7.10543e-15 -1.77636e-15 40.0191 0.884564 2.79108 -2.506 0 0 -6.7605 -1.01325e-05 4.95487e-06 -7.6901 0.6618 -3.9096 23.7979 -8.71972 6.37577 -3.2119 -7.10543e-15 -1.77636e-15 34.83 -0.61571 -1.9928 -1.924 0 8.88178e-16 -4.413 -4.01223e-06 1.12213e-06 8.7379 -0.0029 0.0005 4.55447 -4.45417 1.56913 8.88178e-16 -46.6676 0 1.20907 15.3455 -0.37561 0 -40.1476 1.9984e-15 -4.72772 -11.3775 21.3947 -8.88178e-16 -8.8846 14.2294 0.0001 -4.96962e-17 -6.36111e-15 -8.7379 0.0029 -0.0005 -5.08684 -8.51995 -22.6712 -3.55271e-15 -46.6676 -3.55271e-15 -1.4142 17.7489 0.220967 -3.55271e-15 -40.1476 1.77636e-15 2.79475 -8.49012 -9.39775 3.55271e-15 -8.8846 14.2294 9.93923e-17 4.96962e-17 -0 
-8.29631 96.1746 6.53704 -0.289648 0.896569 -0.278794 0 7.2397 0 0.323973 -2.50985 0.322954 0 16.546 0 0.811252 -3.15895 0.626884 0 34.2149 0 -5.07123 44.2626 4.64533 -1.77636e-15 6.2923 0 4.20361 -32.1561 -3.35753 4.0639 26.6115 -1.1234 1.85972 -2.25911 1.07726 14.1772 0 0 -88.0501 43.993 18.7827 26.1234 3.55271e-15 -7.10543e-15 -0.74703 -4.09456 -27.0775 27.7188 3.55271e-15 0 3.73265 -13.8981 -1.62517 2.2979 -0.4685 1.8313 70.6398 65.5629 -86.3712 5.2953 -7.10543e-15 -1.77636e-15 -16.9755 -7.18314 -0.453143 3.0181 0 -8.88178e-16 12.4883 -0.000109421 -5.86965e-06 9.3793 0.2991 2.5924 -12.7342 -9.41 6.14197 4.3461 0 -3.55271e-15 -29.486 -0.593482 3.47044 2.1666 -7.10543e-15 3.55271e-15 -2.1684 -1.36217e-05 -1.63111e-06 9.4769 0.8376 0.2947 -22.7397 -12.0637 4.18759 4.772 3.10862e-15 0 -19.6821 -0.153077 1.34276 2.8722 -3.55271e-15 -1.77636e-15 3.9574 0.0710973 0.3994 8.6586 1.0176 -1.7016 -20.9847 -6.22435 0.699913 4.5461 8.88178e-16 3.55271e-15 -32.8849 0.476506 -1.56826 2.506 7.10543e-15 -3.55271e-15 6.7605 -9.46994e-06 -9.94322e-05 7.6901 0.6618 -3.9096 -16.7867 -9.68469 0.0814354 3.2119 8.88178e-16 0 -49.289 -2.31349 5.05547 1.924 0 1.77636e-15 4.4131 -5.95467e-06 -3.69154e-06 -4.0677 26.6109 -1.1234 -2.1248 -0.883932 3.44379 -14.1772 -2.84217e-14 -3.55271e-15 83.9762 43.3586 -16.753 -26.1234 0 -7.10543e-15 -0.0100781 -10.6115 27.377 -27.7188 7.10543e-15 4.44089e-16 1.88985 -4.03427 -6.53386 -2.2979 -0.4684 1.8313 -40.0007 51.1983 54.6818 -5.2953 0 -3.55271e-15 19.4658 -1.41035 -1.13008 -3.0181 0 3.55271e-15 -12.4883 -9.51409e-05 0.000105278 -9.3793 0.2991 2.5924 17.0594 -11.948 3.16734 -4.3461 -3.55271e-15 0 17.0817 -0.0670962 -2.44728 -2.1666 -7.10543e-15 0 2.1682 1.53065e-06 6.59416e-06 -9.4769 0.8376 0.2947 12.9503 -8.40543 2.91863 -4.772 7.10543e-15 -1.77636e-15 31.3027 -0.667006 -2.677 -2.8722 5.32907e-15 -3.55271e-15 -3.95751 0.0709846 -0.399396 -8.6586 1.0176 -1.7016 16.2003 -11.5266 1.56526 -4.5461 -3.55271e-15 0 40.0284 0.884564 2.79108 -2.506 0 0 -6.7605 -1.01325e-05 4.95487e-06 -7.6901 0.6618 -3.9096 23.9174 -8.67421 6.3456 -3.2119 -1.06581e-14 8.88178e-16 34.8932 -0.61571 -1.9928 -1.924 0 8.88178e-16 -4.413 -4.01223e-06 1.12213e-06 8.7379 -0.0029 0.0005 4.48431 -4.59238 1.48401 0 -46.6676 0 1.23006 15.5956 -0.369464 1.77636e-15 -40.1476 -6.66134e-16 -4.7209 -11.5436 21.4111 -8.88178e-16 -8.8846 14.2294 0.0001 9.93923e-17 3.18055e-15 -8.7379 0.0029 -0.0005 -5.1891 -8.69673 -22.7202 0 -46.6676 0 -1.44009 18.0543 0.214084 0 -40.1476 0 2.82568 -8.65061 -9.31643 -3.55271e-15 -8.8846 14.2294 -2.48481e-17 0 3.18055e-15 
